<?xml version="1.0" encoding="utf-8" ?>
<svg xmlns="http://www.w3.org/2000/svg" xmlns:xlink="http://www.w3.org/1999/xlink" width="50" height="50">
	<defs>
		<clipPath id="clip_0">
			<rect x="-735" y="-573" width="1440" height="900" clip-rule="evenodd"/>
		</clipPath>
	</defs>
	<g clip-path="url(#clip_0)">
		<path fill="rgb(0,132,176)" stroke="none" d="M0 49.9705L49.9705 49.9705L49.9705 0L0 0L0 49.9705Z"/>
	</g>
	<defs>
		<clipPath id="clip_1">
			<rect x="-735" y="-573" width="1440" height="900" clip-rule="evenodd"/>
		</clipPath>
	</defs>
	<g clip-path="url(#clip_1)">
		<path fill="rgb(255,255,255)" stroke="none" transform="translate(7.54901 7.58936)" d="M4.2114 1.22871e-06C6.50011 0.00186526 8.38772 1.89222 8.38278 4.19233C8.3773 6.60077 6.37862 8.41601 4.18322 8.36371C1.95647 8.40877 -0.000438523 6.5489 7.37119e-08 4.17643C7.37119e-08 1.87544 1.89496 -0.00175316 4.2114 1.22871e-06"/>
	</g>
	<defs>
		<clipPath id="clip_2">
			<rect x="-735" y="-573" width="1440" height="900" clip-rule="evenodd"/>
		</clipPath>
	</defs>
	<g clip-path="url(#clip_2)">
		<path fill="rgb(255,255,255)" stroke="none" transform="translate(8.13611 19.1525)" d="M6.05592 23.2237L1.1523 23.2237C0.515899 23.2237 0 22.7078 0 22.0714L0 1.1523C0 0.515899 0.515899 0 1.1523 0L6.05592 0C6.69232 0 7.20822 0.515899 7.20822 1.1523L7.20822 22.0715C7.20811 22.7078 6.69232 23.2237 6.05592 23.2237"/>
	</g>
	<defs>
		<clipPath id="clip_3">
			<rect x="-735" y="-573" width="1440" height="900" clip-rule="evenodd"/>
		</clipPath>
	</defs>
	<g clip-path="url(#clip_3)">
		<path fill="rgb(255,255,255)" stroke="none" transform="translate(19.9026 18.5594)" d="M22.5189 7.94079C22.5189 3.55526 18.9637 0 14.5781 0L13.3204 0C10.9212 0 8.80132 1.19715 7.52643 3.02697C7.38728 3.22643 7.25855 3.43355 7.14035 3.64737C7.09945 3.64123 7.07522 3.63805 7.07467 3.63914L7.07467 1.07138C7.07467 0.807237 6.86053 0.592982 6.59627 0.592982L0.478399 0.592982C0.214254 0.592982 0 0.807127 0 1.07138L0 23.3386C0 23.6027 0.214035 23.8169 0.47818 23.817L6.72939 23.8185C6.99364 23.8186 7.20789 23.6044 7.20789 23.3401L7.20789 10.4758C7.20789 8.25208 8.98147 6.4057 11.205 6.38059C12.3401 6.36776 13.3693 6.82259 14.1109 7.56469C14.8428 8.29616 15.2953 9.30757 15.2953 10.4242L15.2953 23.3418C15.2953 23.6059 15.5094 23.8201 15.7735 23.8202L22.0401 23.8217C22.3044 23.8218 22.5186 23.6076 22.5186 23.3433L22.5186 7.94079L22.5189 7.94079Z"/>
	</g>
</svg>
