<?xml version="1.0" encoding="utf-8" ?>
<svg xmlns="http://www.w3.org/2000/svg" xmlns:xlink="http://www.w3.org/1999/xlink" width="50" height="50">
	<defs>
		<clipPath id="clip_0">
			<rect width="49.970383" height="49.970394" clip-rule="evenodd"/>
		</clipPath>
	</defs>
	<g clip-path="url(#clip_0)">
		<path fill="rgb(221,74,57)" stroke="none" d="M49.9704 49.9704L0 49.9704L0 0L49.9704 0L49.9704 49.9704ZM29.1305 27.0875C28.276 32.7008 24.0909 35.9189 18.6726 35.9189C12.5837 35.9189 7.64715 30.9823 7.64715 24.8934C7.64715 18.806 12.5837 13.8695 18.6726 13.8695C21.618 13.8695 24.1988 14.9206 26.0773 16.7452L22.9132 19.9093C21.8416 18.8297 20.3751 18.2543 18.6726 18.2543C15.0884 18.2543 12.1826 21.3106 12.1826 24.8933C12.1826 28.4792 15.0884 31.4468 18.6726 31.4468C21.6766 31.4468 23.9515 29.9947 24.6078 27.0875L18.6726 27.0875L18.6726 22.6598L29.1036 22.6598C29.2288 23.3731 29.2922 24.1197 29.2922 24.8933C29.2921 25.6606 29.2366 26.3914 29.1305 27.0875ZM42.3705 25.7146L38.5072 25.7146L38.5072 29.5762L35.7632 29.5762L35.7632 25.7146L31.8999 25.7146L31.8999 22.9689L35.7632 22.9689L35.7632 19.1056L38.5072 19.1056L38.5072 22.9689L42.3705 22.9689L42.3705 25.7146Z" fill-rule="evenodd"/>
	</g>
</svg>
