<?xml version="1.0" encoding="utf-8" ?>
<svg xmlns="http://www.w3.org/2000/svg" xmlns:xlink="http://www.w3.org/1999/xlink" width="50" height="50">
	<defs>
		<clipPath id="clip_0">
			<rect x="-815" y="-573" width="1440" height="900" clip-rule="evenodd"/>
		</clipPath>
	</defs>
	<g clip-path="url(#clip_0)">
		<path fill="rgb(80,171,240)" stroke="none" d="M0 49.9705L49.9705 49.9705L49.9705 0L0 0L0 49.9705Z"/>
	</g>
	<defs>
		<clipPath id="clip_1">
			<rect x="-815" y="-573" width="1440" height="900" clip-rule="evenodd"/>
		</clipPath>
	</defs>
	<g clip-path="url(#clip_1)">
		<path fill="rgb(255,255,255)" stroke="none" transform="translate(6.61819 10.5308)" d="M0.00208333 26.5111C3.32774 28.6203 7.2727 29.8409 11.5015 29.8409C23.3819 29.8409 33.0125 20.2092 33.0125 8.32993C33.0125 8.03333 33.0062 7.73892 32.995 7.4455C33.4246 7.10724 36.0822 4.97708 36.7337 3.60778C36.7337 3.60778 34.5754 4.5046 32.4632 4.71601C32.459 4.71601 32.4538 4.71689 32.4497 4.71689C32.4497 4.71689 32.4538 4.7148 32.4611 4.70965C32.6557 4.57961 35.3768 2.7273 35.7452 0.520285C35.7452 0.520285 34.2186 1.3352 32.0812 2.04792C31.7274 2.16546 31.357 2.28103 30.9751 2.38827C29.5974 0.917763 27.639 0 25.4652 0C21.2956 0 17.9169 3.37774 17.9169 7.54419C17.9169 8.13213 17.9845 8.7045 18.1125 9.25384C17.5298 9.22993 8.65669 8.73246 2.62029 1.42237C2.62029 1.42237 -0.98739 6.34748 4.77018 11.412C4.77018 11.412 3.01996 11.3422 1.50998 10.44C1.50998 10.44 0.955373 16.4068 7.47566 17.9323C7.47566 17.9323 6.19265 18.4182 4.14583 18.0717C4.14583 18.0717 5.29046 22.8928 11.0834 23.3433C11.0834 23.3433 6.50263 27.4816 0 26.5105L0.00208333 26.5111Z"/>
	</g>
</svg>
